<?xml version="1.0" standalone="no"?>
<!DOCTYPE svg PUBLIC "-//W3C//DTD SVG 20010904//EN"
 "http://www.w3.org/TR/2001/REC-SVG-20010904/DTD/svg10.dtd">
<svg version="1.0" xmlns="http://www.w3.org/2000/svg"
 width="512.000000pt" height="512.000000pt" viewBox="0 0 512.000000 512.000000"
 preserveAspectRatio="xMidYMid meet">

<g transform="translate(0.000000,512.000000) scale(0.100000,-0.100000)"
fill="#000000" stroke="none">
<path d="M1798 5104 c-201 -48 -367 -227 -399 -433 -35 -216 81 -438 283 -543
326 -169 724 53 756 421 l7 74 183 33 c100 17 193 39 207 48 58 38 72 141 26
190 -44 47 -75 48 -294 10 l-202 -35 -14 23 c-8 13 -41 49 -73 80 -126 123
-310 174 -480 132z m222 -260 c22 -9 40 -19 40 -23 0 -4 -73 -20 -162 -35 -90
-15 -172 -30 -183 -33 -37 -10 36 58 90 83 60 29 154 32 215 8z m161 -306
c-29 -126 -136 -211 -265 -210 -34 0 -78 8 -99 17 -45 19 -113 78 -132 115
l-14 27 187 33 c103 18 216 38 252 45 36 7 68 10 71 9 4 -2 4 -19 0 -36z"/>
<path d="M3385 4669 c-170 -38 -320 -77 -332 -85 -13 -8 -31 -26 -40 -41 -16
-25 -18 -60 -18 -393 0 -342 1 -367 19 -393 53 -78 167 -74 216 6 15 24 20 50
20 110 0 45 4 77 10 77 6 0 111 -22 235 -50 124 -27 235 -50 247 -50 34 0 85
35 103 70 14 26 15 78 13 390 l-3 360 -32 31 c-50 51 -84 48 -438 -32z m225
-374 c0 -85 -3 -155 -7 -155 -5 0 -86 17 -180 37 l-173 38 0 81 0 80 158 36
c227 52 202 66 202 -117z"/>
<path d="M4365 4673 c-231 -50 -252 -57 -282 -86 -75 -71 -42 -186 60 -211 27
-6 516 91 577 115 14 5 36 26 50 46 61 90 1 195 -110 192 -25 -1 -157 -26
-295 -56z"/>
<path d="M4103 4200 c-37 -22 -63 -67 -63 -107 0 -34 31 -86 62 -107 24 -16
525 -126 572 -126 47 0 86 28 108 76 17 39 18 50 7 82 -14 45 -25 59 -58 77
-29 15 -532 125 -571 125 -14 0 -39 -9 -57 -20z"/>
<path d="M2680 4045 c-14 -7 -54 -45 -88 -83 -70 -79 -154 -140 -240 -173 -53
-21 -78 -23 -392 -30 -257 -5 -354 -11 -415 -24 -272 -58 -488 -257 -651 -600
-39 -83 -529 -1282 -568 -1389 -10 -28 11 -90 40 -119 49 -50 150 -41 187 16
8 12 130 308 271 657 142 349 279 680 306 735 94 197 210 335 337 403 99 52
177 62 490 62 236 0 292 3 373 20 175 36 343 140 465 287 32 39 57 81 61 100
19 100 -90 185 -176 138z"/>
<path d="M1403 3166 c-38 -17 -62 -51 -69 -97 -4 -25 38 -193 150 -604 l156
-570 0 -816 0 -817 -122 -4 c-98 -2 -129 -7 -154 -22 -63 -38 -82 -112 -44
-173 35 -58 57 -63 275 -63 215 0 235 4 274 59 21 29 21 34 21 880 l0 851 105
0 105 0 0 -854 c0 -850 0 -853 21 -880 41 -52 62 -56 275 -56 177 0 200 2 228
19 72 45 86 134 30 192 -37 39 -79 49 -201 49 l-103 0 0 819 0 820 155 568
c108 394 154 578 151 601 -16 108 -148 147 -219 63 -17 -21 -58 -157 -167
-554 l-143 -527 -132 0 -132 0 -11 38 c-6 20 -70 255 -142 522 -73 267 -138
495 -146 507 -33 52 -106 74 -161 49z"/>
</g>
</svg>
