<?xml version="1.0" standalone="no"?>
<!DOCTYPE svg PUBLIC "-//W3C//DTD SVG 20010904//EN"
 "http://www.w3.org/TR/2001/REC-SVG-20010904/DTD/svg10.dtd">
<svg version="1.0" xmlns="http://www.w3.org/2000/svg"
 width="512.000000pt" height="512.000000pt" viewBox="0 0 512.000000 512.000000"
 preserveAspectRatio="xMidYMid meet">

<g transform="translate(0.000000,512.000000) scale(0.100000,-0.100000)"
fill="#000000" stroke="none">
<path d="M1894 4823 c-12 -2 -34 -18 -50 -34 l-29 -30 0 -619 c0 -612 0 -619
21 -647 24 -32 78 -53 117 -46 37 7 83 54 91 94 3 17 6 260 6 540 l0 509 1415
0 1415 0 0 -1725 0 -1725 -180 0 c-198 0 -216 -5 -246 -61 -19 -38 -18 -78 6
-116 34 -57 41 -58 320 -58 237 0 257 1 284 20 59 40 56 -80 56 1942 0 1749
-1 1860 -18 1893 -10 20 -32 42 -52 52 -33 17 -128 18 -1585 17 -852 -1 -1560
-4 -1571 -6z"/>
<path d="M2918 4303 c-39 -6 -85 -53 -93 -95 -9 -46 17 -104 56 -123 24 -13
117 -15 584 -15 611 0 588 -2 621 61 19 38 18 78 -6 116 -36 60 -17 58 -600
59 -294 1 -547 -1 -562 -3z"/>
<path d="M2562 3797 c-54 -30 -73 -115 -39 -168 37 -56 -2 -54 936 -54 935 0
911 -1 947 53 20 31 23 91 6 124 -8 14 -26 32 -42 41 -26 16 -104 17 -907 17
-685 -1 -883 -3 -901 -13z"/>
<path d="M633 3193 c-33 -6 -79 -57 -87 -94 -3 -17 -6 -330 -6 -695 l0 -664
-59 0 c-45 0 -65 -5 -86 -22 -36 -28 -56 -78 -49 -118 9 -40 54 -86 95 -94 52
-10 481 -7 521 4 69 19 104 97 74 162 -26 54 -60 68 -165 68 l-91 0 0 395 c0
217 2 395 4 395 2 0 289 -191 636 -425 348 -233 651 -433 674 -444 142 -69
373 -70 504 -2 20 11 322 211 670 445 349 234 636 426 638 426 2 0 4 -450 4
-1000 l0 -1000 -1565 0 -1565 0 0 110 0 110 86 0 c104 0 145 16 169 67 31 66
-4 143 -73 163 -40 11 -469 14 -521 4 -40 -8 -87 -54 -94 -91 -15 -78 48 -143
139 -143 l52 0 4 -188 c3 -162 6 -192 21 -216 39 -59 -66 -56 1782 -56 1848 0
1743 -3 1782 56 17 27 18 88 18 1395 0 1483 3 1397 -54 1436 -25 17 -122 18
-1731 19 -938 1 -1715 -1 -1727 -3z m3277 -301 l0 -68 -692 -465 c-381 -257
-707 -473 -725 -483 -82 -42 -215 -41 -297 1 -17 9 -343 225 -723 482 l-693
465 0 68 0 68 1565 0 1565 0 0 -68z"/>
<path d="M4371 2100 c-58 -58 -47 -146 22 -189 45 -27 71 -82 70 -146 0 -63
-21 -104 -67 -136 -67 -45 -82 -123 -36 -182 95 -121 305 36 339 254 33 205
-102 429 -257 429 -32 0 -47 -7 -71 -30z"/>
<path d="M1444 1671 c-330 -113 -418 -523 -162 -758 179 -164 467 -147 630 36
159 179 146 461 -28 620 -62 57 -91 74 -172 102 -71 24 -197 24 -268 0z m219
-234 c45 -20 104 -88 118 -139 24 -92 -27 -199 -116 -239 -106 -49 -226 -3
-276 106 -45 99 4 226 106 271 39 17 127 18 168 1z"/>
<path d="M98 1363 c-15 -2 -41 -17 -57 -32 -39 -36 -48 -87 -26 -135 32 -66
29 -66 479 -66 l404 0 31 26 c75 62 47 177 -48 204 -34 9 -723 12 -783 3z"/>
</g>
</svg>
