<?xml version="1.0" standalone="no"?>
<!DOCTYPE svg PUBLIC "-//W3C//DTD SVG 20010904//EN"
 "http://www.w3.org/TR/2001/REC-SVG-20010904/DTD/svg10.dtd">
<svg version="1.0" xmlns="http://www.w3.org/2000/svg"
 width="512.000000pt" height="512.000000pt" viewBox="0 0 512.000000 512.000000"
 preserveAspectRatio="xMidYMid meet">

<g transform="translate(0.000000,512.000000) scale(0.100000,-0.100000)"
fill="#000000" stroke="none">
<path d="M2424 5105 c-196 -42 -366 -174 -454 -350 -53 -107 -71 -179 -71
-300 0 -119 17 -192 70 -300 74 -151 221 -278 384 -332 72 -23 98 -27 207 -27
109 0 135 4 207 27 163 54 310 181 384 332 54 112 70 180 70 310 0 189 -56
321 -195 461 -65 65 -98 89 -166 122 -140 67 -296 88 -436 57z m267 -245 c33
-12 77 -31 97 -44 50 -32 125 -114 152 -166 l22 -43 -54 6 c-123 13 -235 80
-305 186 -24 34 -43 67 -43 72 0 16 68 10 131 -11z m-342 -93 c57 -133 180
-260 314 -325 92 -45 142 -59 246 -68 82 -8 81 -4 30 -111 -38 -80 -135 -171
-216 -203 -78 -31 -201 -38 -275 -16 -167 48 -284 183 -310 355 -19 130 21
250 118 351 31 33 61 60 66 60 5 0 17 -19 27 -43z"/>
<path d="M2173 3546 c-257 -49 -467 -192 -627 -430 -62 -93 -4 -205 99 -192
32 4 48 14 80 50 154 171 188 205 251 246 39 26 105 58 145 71 73 24 80 24
439 24 359 0 366 0 439 -24 131 -43 272 -155 371 -294 55 -78 113 -96 178 -57
58 35 69 112 26 176 -144 213 -332 353 -559 416 -74 20 -105 22 -425 24 -256
2 -364 0 -417 -10z"/>
<path d="M1420 2694 c-83 -17 -210 -80 -276 -136 -62 -52 -137 -145 -169 -207
-78 -155 -94 -344 -41 -505 36 -108 102 -212 184 -287 75 -69 142 -109 247
-145 68 -23 97 -27 195 -28 168 -1 291 40 416 140 82 66 139 136 185 229 95
193 92 414 -9 610 -53 104 -173 220 -283 274 -138 68 -298 88 -449 55z m282
-245 c34 -11 80 -33 102 -49 66 -45 135 -127 150 -177 7 -20 4 -23 -22 -23
-84 0 -220 67 -286 140 -30 34 -76 108 -76 125 0 12 75 3 132 -16z m-329 -122
c109 -213 291 -333 550 -363 68 -8 69 -13 28 -99 -127 -267 -476 -328 -685
-119 -143 142 -166 363 -56 534 29 45 104 120 119 120 3 0 23 -33 44 -73z"/>
<path d="M3392 2690 c-210 -55 -375 -200 -455 -400 -142 -357 47 -755 418
-877 69 -23 97 -27 200 -27 105 1 130 4 204 29 205 70 360 226 427 431 24 75
29 105 29 194 0 58 -6 130 -14 160 -19 78 -82 205 -135 271 -154 191 -433 282
-674 219z m340 -258 c35 -16 83 -47 108 -69 47 -43 118 -149 106 -160 -12 -13
-132 14 -190 43 -69 34 -149 112 -183 178 l-25 49 61 -6 c37 -3 86 -17 123
-35z m-372 -110 c108 -208 297 -332 543 -357 42 -4 67 -11 67 -19 0 -20 -67
-149 -92 -177 -75 -84 -186 -140 -293 -147 -178 -11 -343 85 -418 245 -58 125
-48 291 24 405 26 41 110 128 123 128 3 0 23 -35 46 -78z"/>
<path d="M1160 1135 c-252 -51 -457 -200 -622 -452 -79 -119 -125 -210 -202
-394 -67 -163 -71 -202 -26 -248 40 -39 87 -48 135 -26 39 19 58 51 114 192
114 286 259 497 413 599 148 99 271 119 673 111 194 -4 275 -9 320 -21 269
-72 461 -303 645 -776 39 -101 99 -137 173 -107 85 36 89 96 18 267 -226 539
-467 785 -838 856 -101 19 -707 18 -803 -1z"/>
<path d="M3148 1135 c-143 -29 -308 -106 -333 -156 -33 -62 -9 -131 55 -164
42 -21 57 -19 135 21 126 65 188 75 475 81 396 8 520 -13 668 -111 154 -102
299 -313 413 -599 55 -139 77 -176 113 -194 45 -21 97 -11 136 28 46 46 41 84
-31 258 -172 414 -357 645 -614 766 -162 77 -174 78 -585 81 -278 2 -381 0
-432 -11z"/>
</g>
</svg>
