<?xml version="1.0" standalone="no"?>
<!DOCTYPE svg PUBLIC "-//W3C//DTD SVG 20010904//EN"
 "http://www.w3.org/TR/2001/REC-SVG-20010904/DTD/svg10.dtd">
<svg version="1.0" xmlns="http://www.w3.org/2000/svg"
 width="512.000000pt" height="512.000000pt" viewBox="0 0 512.000000 512.000000"
 preserveAspectRatio="xMidYMid meet">

<g transform="translate(0.000000,512.000000) scale(0.100000,-0.100000)"
fill="#000000" stroke="none">
<path d="M2511 4918 c-13 -7 -32 -24 -42 -38 -10 -14 -107 -301 -216 -637
l-197 -613 -664 0 -664 0 -34 -34 c-38 -38 -45 -85 -20 -134 9 -17 211 -170
540 -407 289 -209 526 -384 526 -388 0 -5 -90 -284 -200 -621 -110 -336 -200
-621 -200 -634 0 -79 94 -137 163 -100 12 6 252 179 534 385 281 205 517 373
523 373 6 0 242 -168 523 -374 282 -205 522 -378 534 -385 69 -36 163 22 163
101 0 13 -90 298 -200 634 -110 337 -200 616 -200 621 0 4 237 179 526 388
329 237 531 390 540 407 25 49 18 96 -20 134 l-34 34 -664 0 -664 0 -159 493
c-240 744 -241 748 -268 774 -29 29 -91 39 -126 21z m204 -960 c82 -255 154
-474 161 -488 6 -14 22 -34 34 -45 21 -19 40 -20 547 -25 l525 -5 -408 -295
c-224 -162 -416 -307 -427 -321 -12 -17 -19 -42 -18 -65 0 -22 70 -250 155
-509 85 -258 153 -471 151 -473 -2 -2 -186 130 -410 293 -223 163 -419 301
-436 305 -16 5 -42 5 -58 0 -17 -4 -213 -142 -436 -305 -224 -163 -408 -295
-410 -293 -2 2 66 215 151 473 85 259 155 487 155 509 1 23 -6 48 -18 65 -11
14 -203 159 -428 321 l-407 295 525 5 c507 5 526 6 547 25 12 11 28 31 34 45
7 14 79 233 161 488 82 254 152 462 155 462 3 0 73 -208 155 -462z"/>
<path d="M54 2831 c-37 -22 -59 -76 -49 -120 3 -15 20 -41 36 -57 l30 -29 457
-3 c251 -2 472 0 491 3 53 10 91 57 91 112 0 38 -5 50 -34 79 l-34 34 -479 0
c-454 0 -480 -1 -509 -19z"/>
<path d="M4044 2816 c-29 -29 -34 -41 -34 -79 0 -55 38 -102 91 -112 19 -3
240 -5 491 -3 l457 3 30 29 c38 37 48 81 28 129 -29 68 -21 67 -553 67 l-476
0 -34 -34z"/>
<path d="M412 2360 c-16 -16 -32 -41 -35 -57 -7 -39 14 -93 46 -117 28 -20 38
-21 411 -21 428 0 422 -1 453 73 20 47 4 103 -36 131 -28 20 -42 21 -419 21
l-390 0 -30 -30z"/>
<path d="M3862 2362 c-38 -35 -48 -79 -28 -125 30 -73 24 -72 452 -72 373 0
383 1 411 21 32 24 53 78 46 117 -3 16 -19 41 -35 57 l-30 30 -393 0 -393 0
-30 -28z"/>
<path d="M743 1933 c-13 -2 -36 -17 -52 -33 -48 -49 -48 -111 0 -159 33 -33
70 -41 194 -41 126 0 161 8 196 42 24 25 29 38 29 78 0 40 -5 53 -29 78 -18
17 -45 32 -68 35 -41 7 -234 7 -270 0z"/>
<path d="M4098 1933 c-15 -2 -41 -18 -58 -34 -25 -26 -30 -38 -30 -79 0 -68
38 -106 116 -116 91 -11 255 0 285 19 70 46 69 147 0 194 -21 15 -51 18 -156
19 -71 1 -142 0 -157 -3z"/>
<path d="M2470 1318 c-144 -15 -245 -48 -700 -221 -490 -187 -687 -191 -873
-17 -75 70 -120 85 -174 57 -38 -20 -67 -78 -58 -117 16 -73 155 -197 273
-245 259 -104 498 -66 1097 175 346 139 499 164 702 115 96 -23 159 -45 563
-200 432 -165 677 -185 907 -74 88 42 201 137 230 192 37 72 -17 167 -95 167
-44 0 -78 -19 -132 -75 -58 -60 -140 -102 -231 -116 -145 -25 -334 21 -746
180 -438 168 -573 200 -763 179z"/>
<path d="M2360 771 c-98 -22 -246 -72 -475 -161 -312 -121 -438 -160 -585
-181 -167 -24 -293 14 -404 121 -46 44 -74 62 -100 67 -70 11 -131 -39 -131
-109 0 -48 42 -108 120 -171 181 -146 420 -183 705 -108 137 35 228 67 495
171 289 113 418 151 540 157 155 9 221 -10 760 -216 457 -175 708 -195 939
-73 83 44 211 162 222 206 11 47 -7 98 -45 123 -62 42 -115 26 -199 -60 -69
-72 -186 -117 -300 -117 -63 0 -188 23 -295 54 -87 26 -145 47 -512 186 -266
101 -349 121 -515 126 -106 3 -153 0 -220 -15z"/>
</g>
</svg>
